. 
 
http://www.torrenting.com          :     Once & For all ;)


               www . Torrenting . Com 

(((((((((((((= Enjoy No RAR releases =))))))))))))))))))))


...................................NFO:....................................

.                                                                                                     
       
     
     
       
       
     
     
                                         
                                         
                EXVID                    
                                         
         
                                         
         Filled the Archives             
                                         
         
                                         
                With:                    
                                         
         
                                         
                                    
     E240                           
                                    
     SP               (C) 2009      
                                         
     
     
     
                                                                                  
                                                                                   
                  Character.1997.WS.DVDRip.XviD-EXViD                               
                                                                                   
                                                                                  
     
                                                                                               
EXViD aims to iNTERNAL those releases which have been lost in the archives.
EXViD aims to PRE non-internal releases which have poor sources and are likely skipped by others. 
http://www.imdb.com/title/tt0119448/
Subtitles: English
Date: 2011.12

Director: Mike van Diem

Genre: Crime | Drama | Mystery

Plot:
A ruthless court bailiff is found dead, and a young lawyer is the prime suspect. Told in a
series of flashbacks, Jacob Katadreuffe tells the tale leading to the events of his final
confrontation with bailiff Dreverhaven. What unfolds is the man's life story ... of his
strained relationship with his mother, of his strong desire to make a better life for himself
(largely self-taught), of his obsession with his father, and the bizarre battle of wills with
Dreverhaven.

Cast:
Jan Decleir	 ...	Dreverhaven
Fedja van Hut	 ...	Katadreuffe
Betty Schuurman	 ...	Joba
Tamar van den Dop	 ...	Lorna Te George
Victor Lw	 ...	De Gankelaar
Hans Kesting	 ...	Jan Maan
Lou Landr	 ...	Rentenstein
Bernard Droog	 ...	Stroomkoning
Frans Vorstman	 ...	Inspecteur de Bree
Fred Goessens	 ...	Schuwagt
Jasper Gottlieb	 ...	Jacob 6 jaar
Marius Gottlieb	 ...	Jacob 6 jaar
Pavlik Jansen op de Haar	 ...	Jacob 12 jaar
Marisa Van Eyle	 ...	Jiffrouw Sibculo
Wim Van Der Grijn	 ...	2e Inspecteur

Stats:
Format                           : AVI
Format/Info                      : Audio Video Interleave
File size                        : 1.37 GiB
Duration                         : 1h 59mn
Overall bit rate                 : 1 639 Kbps
Writing application              : Nandub v1.0rc2
Writing library                  : Nandub build 1852/release

Video
ID                               : 0
Format                           : MPEG-4 Visual
Format profile                   : Advanced Simple@L5
Format settings, BVOP            : 2
Format settings, QPel            : No
Format settings, GMC             : No warppoints
Format settings, Matrix          : Default (H.263)
Codec ID                         : XVID
Codec ID/Hint                    : XviD
Duration                         : 1h 59mn
Bit rate                         : 1 184 Kbps
Width                            : 624 pixels
Height                           : 336 pixels
Display aspect ratio             : 1.857
Frame rate                       : 25.000 fps
Color space                      : YUV
Chroma subsampling               : 4:2:0
Bit depth                        : 8 bits
Scan type                        : Progressive
Compression mode                 : Lossy
Bits/(Pixel*Frame)               : 0.226
Stream size                      : 1 012 MiB (72%)
Writing library                  : XviD 64

Audio
ID                               : 1
Format                           : AC-3
Format/Info                      : Audio Coding 3
Mode extension                   : CM (complete main)
Codec ID                         : 2000
Duration                         : 1h 59mn
Bit rate mode                    : Constant
Bit rate                         : 448 Kbps
Channel(s)                       : 6 channels
Channel positions                : Front: L C R, Side: L R, LFE
Sampling rate                    : 48.0 KHz
Bit depth                        : 16 bits
Compression mode                 : Lossy
Stream size                      : 383 MiB (27%)
Alignment                        : Aligned on interleaves
Interleave, duration             : 96 ms (2.40 video frames)
Interleave, preload duration     : 96 ms




Release notes:
This new rip is from the 2011 Russian DVD with 1.85:1 OAR. Compared to the source that we
used for the PROPER earlier this year, the new source has ~32 pixels more information on
the left, and ~16 less on the right, meaning the frame is wider by about 16 pixels.

enjoy!

Looking for:
75TB+ Archives
DUTCH/FLEMiSH Archives
                                                                                                    
Greets: CRBS EPiSODE FiCO FLS iLS KLASSiGER LiPSYNC MADE NODLABS RUNNER SPRiNTER      
   

                                                                    ASCII DONE BY XX^NFO 2oo9